<svg id="Capa_1" enable-background="new 0 0 510.181 510.181" height="512" viewBox="0 0 510.181 510.181" width="512" xmlns="http://www.w3.org/2000/svg"><g><g><path d="m332.614 296.425-195.666-288.924-.211.143c-27.526 18.641-34.728 56.067-16.087 83.592l161.914 239.084 28.029 41.375 46.879-36.016z" fill="#e5e1e5"/></g><path d="m270.187 312.044 36.502-53.9-66.695-98.484-36.503 53.901z" fill="#d7d0d6"/><path d="m374.021 8.034-.788-.534-195.667 288.925-16.001 28.704 43.695 31.42 22.357-26.229 162.305-239.662c18.425-27.207 11.306-64.199-15.901-82.624z" fill="#efedef"/><g id="XMLID_771_"><g fill="#6cf5c2"><path d="m373.35 318.829c47.18 3.99 84.22 43.54 84.22 91.75 0 50.87-41.23 92.1-92.09 92.1-50.87 0-92.1-41.23-92.1-92.1 0-14.93 3.56-29.03 9.86-41.5l-9.89-14.61c-4.59-6.78-2.82-16 3.96-20.59l60.56-41.01c6.78-4.59 15.99-2.82 20.59 3.96zm44.22 91.75c0-28.77-23.32-52.09-52.09-52.09-28.78 0-52.1 23.32-52.1 52.09 0 28.78 23.32 52.1 52.1 52.1 28.77 0 52.09-23.32 52.09-52.1z"/><path d="m92.61 410.579c0 28.78 23.32 52.1 52.09 52.1 28.78 0 52.1-23.32 52.1-52.1 0-28.77-23.32-52.09-52.1-52.09-28.77 0-52.09 23.32-52.09 52.09zm140.26-76.7c6.78 4.59 8.55 13.81 3.96 20.59l-9.89 14.61c6.3 12.47 9.86 26.57 9.86 41.5 0 50.87-41.23 92.1-92.1 92.1-50.86 0-92.09-41.23-92.09-92.1 0-48.21 37.04-87.76 84.22-91.75l14.89-22c4.6-6.78 13.81-8.55 20.59-3.96z"/></g></g><g><path d="m246.479 341.934c-1.053-5.474-4.06-10.239-8.479-13.571l32.735-48.337c2.322-3.43 1.425-8.093-2.004-10.416-3.431-2.323-8.093-1.424-10.416 2.004l-32.704 48.29-37.63-25.484 187.026-276.164c19.379 17.023 23.537 46.293 8.704 68.197l-107.144 158.212c-2.322 3.43-1.425 8.093 2.005 10.416 3.428 2.322 8.092 1.426 10.415-2.004l107.144-158.213c20.714-30.588 12.683-72.325-17.905-93.04l-.788-.534c-3.429-2.322-8.093-1.425-10.415 2.004l-191.494 282.764c-10.089-6.097-23.331-3.303-30.015 6.567l-12.935 19.1c-23.392 2.842-44.959 13.874-61.062 31.311-17.031 18.441-26.41 42.43-26.41 67.548 0 54.918 44.679 99.597 99.597 99.597s99.597-44.679 99.597-99.597c0-14.279-2.939-28.002-8.743-40.858l7.484-11.052c3.343-4.939 4.565-10.884 3.437-16.74zm-15.857 8.328-9.896 14.612c-1.527 2.255-1.712 5.16-.483 7.59 6.011 11.886 9.058 24.71 9.058 38.119 0 46.647-37.95 84.597-84.597 84.597s-84.597-37.95-84.597-84.597c0-21.334 7.966-41.709 22.43-57.371 14.383-15.574 33.889-25.132 54.925-26.914 2.257-.191 4.307-1.392 5.577-3.268l14.896-21.995c1.415-2.089 3.726-3.216 6.077-3.216 1.413 0 2.842.407 4.098 1.258l55.292 37.445c.003.002.006.005.01.007.002.001.005.002.007.004l5.246 3.553c3.343 2.267 4.222 6.831 1.957 10.176z"/><path d="m144.704 350.986c-32.862 0-59.598 26.735-59.598 59.597 0 11.282 3.183 22.28 9.205 31.804 2.213 3.501 6.848 4.544 10.347 2.332 3.501-2.213 4.545-6.846 2.331-10.347-4.503-7.123-6.883-15.349-6.883-23.789 0-24.591 20.007-44.597 44.598-44.597s44.598 20.006 44.598 44.597-20.007 44.598-44.598 44.598c-5.711 0-11.291-1.077-16.585-3.2-3.843-1.542-8.211.324-9.753 4.169s.324 8.211 4.169 9.753c7.077 2.838 14.536 4.278 22.169 4.278 32.862 0 59.598-26.735 59.598-59.598-.001-32.861-26.736-59.597-59.598-59.597z"/><path d="m230.552 159.093c1.45 2.141 3.813 3.295 6.217 3.295 1.447 0 2.91-.418 4.199-1.291 3.429-2.323 4.326-6.986 2.004-10.416l-38.911-57.456c-2.322-3.43-6.984-4.326-10.416-2.004-3.429 2.323-4.326 6.986-2.004 10.416z"/><path d="m194.049 212.994c1.45 2.141 3.812 3.295 6.217 3.295 1.447 0 2.91-.418 4.198-1.291 3.43-2.323 4.327-6.986 2.005-10.416l-79.609-117.552c-7.893-11.654-10.774-25.684-8.114-39.505 2.197-11.419 7.961-21.567 16.474-29.202l38.171 56.364c2.322 3.43 6.985 4.326 10.415 2.004 3.43-2.323 4.327-6.986 2.005-10.416l-42.653-62.98c-1.116-1.648-2.841-2.784-4.795-3.16s-3.979.041-5.625 1.158l-.206.14c-14.972 10.139-25.099 25.501-28.516 43.257s.284 35.779 10.424 50.75z"/><path d="m438.664 343.036c-16.104-17.438-37.671-28.469-61.063-31.311l-12.935-19.1c-6.685-9.87-19.93-12.665-30.015-6.567l-18.52-27.348c-2.323-3.43-6.987-4.328-10.415-2.004-3.43 2.323-4.327 6.986-2.005 10.416l18.487 27.299-37.63 25.484-4.94-7.294c-2.323-3.43-6.984-4.326-10.416-2.004-3.43 2.323-4.326 6.986-2.004 10.416l4.972 7.341c-4.419 3.332-7.425 8.097-8.479 13.571-1.128 5.856.094 11.801 3.438 16.739l7.484 11.052c-5.804 12.856-8.743 26.579-8.743 40.858 0 54.918 44.679 99.597 99.597 99.597s99.597-44.679 99.597-99.597c0-25.118-9.379-49.107-26.41-67.548zm-73.187 152.145c-46.646 0-84.597-37.95-84.597-84.597 0-13.409 3.047-26.233 9.058-38.119 1.229-2.43 1.044-5.335-.483-7.59l-9.896-14.612c-2.266-3.345-1.387-7.91 1.958-10.175l5.246-3.553c.002-.001.004-.002.007-.004s.006-.005.009-.007l55.294-37.445c3.343-2.265 7.907-1.388 10.174 1.958l14.896 21.995c1.271 1.875 3.32 3.077 5.577 3.268 21.036 1.782 40.542 11.34 54.925 26.914 14.464 15.662 22.43 36.037 22.43 57.371-.001 46.645-37.951 84.596-84.598 84.596z"/><path d="m365.477 350.986c-32.862 0-59.598 26.735-59.598 59.597s26.735 59.598 59.598 59.598 59.598-26.735 59.598-59.598c0-32.861-26.736-59.597-59.598-59.597zm0 104.195c-24.591 0-44.598-20.006-44.598-44.598 0-24.591 20.007-44.597 44.598-44.597s44.598 20.006 44.598 44.597c0 24.592-20.007 44.598-44.598 44.598z"/><path d="m247.084 234.666v4.745c0 4.142 3.357 7.5 7.5 7.5s7.5-3.358 7.5-7.5v-4.745c0-4.142-3.357-7.5-7.5-7.5-4.142 0-7.5 3.357-7.5 7.5z"/></g></g></svg>