<svg id="Layer_5" enable-background="new 0 0 64 64" height="512" viewBox="0 0 64 64" width="512" xmlns="http://www.w3.org/2000/svg"><path d="m32 2h30v26h-30z" fill="#f0d0b4"/><path d="m48 16h10v8h-10z" fill="#e6e9ed"/><path d="m36 6h22v6h-22z" fill="#fcd770"/><path d="m62 32-6 8h-6l-6 4h-6v-12z" fill="#e6e9ed"/><path d="m56 40h-6l-6 4h-6v6h6 6 6 6v-18z" fill="#ff826e"/><path d="m32 51v6c0 2.76-6.71 5-15 5-8.28 0-15-2.24-15-5v-6c0 2.76 6.72 5 15 5 8.29 0 15-2.24 15-5z" fill="#aab2bd"/><path d="m10 51.42c2.09.37 4.47.58 7 .58s4.91-.21 7-.58c4.76-.84 8-2.5 8-4.42v4c0 2.76-6.71 5-15 5-8.28 0-15-2.24-15-5v-4c0 1.92 3.24 3.58 8 4.42z" fill="#ccd1d9"/><path d="m10 42.58v8.84c-4.76-.84-8-2.5-8-4.42s3.24-3.58 8-4.42z" fill="#e6e9ed"/><path d="m24 42.58c4.76.84 8 2.5 8 4.42s-3.24 3.58-8 4.42z" fill="#e6e9ed"/><path d="m11.23 34h7.77l-.83.83c-.75.75-1.17 1.77-1.17 2.83v14.34c-2.53 0-4.91-.21-7-.58v-8.84-8.73c.39.1.81.15 1.23.15z" fill="#cf9e76"/><path d="m24 51.42c-2.09.37-4.47.58-7 .58v-14.34c0-1.06.42-2.08 1.17-2.83l.83-.83h5v8.58z" fill="#cf9e76"/><path d="m24 25v9h-5-7.77c-.42 0-.84-.05-1.23-.15-2.29-.55-4-2.61-4-5.08v-2.77c0-4.42 3.58-8 8-8h3 3.99l6.69.9 4.32-5.01.7-.81c.57-.69 1.41-1.08 2.3-1.08.7 0 1.38.25 1.92.69 1.27 1.06 1.44 2.96.39 4.23l-5.31 6.21-.03.04c-1 1.17-2.45 1.84-3.98 1.83z" fill="#5cd6b3"/><path d="m24 12c.28 0 .54-.06.78-.16-.83 3.53-4 6.16-7.78 6.16s-6.94-2.63-7.78-6.16c.24.1.5.16.78.16h3.77c.75 0 1.45-.43 1.78-1.11.28-.54.84-.89 1.45-.89s1.17.35 1.45.89c.34.68 1.03 1.11 1.79 1.11z" fill="#f0d0b4"/><path d="m23.92 6h-13.84c1.38-2.39 3.96-4 6.92-4s5.54 1.61 6.92 4z" fill="#f0d0b4"/><path d="m26 8v2c0 .82-.5 1.54-1.22 1.84-.24.1-.5.16-.78.16h-3.76c-.76 0-1.45-.43-1.79-1.11-.28-.54-.84-.89-1.45-.89s-1.17.35-1.45.89c-.33.68-1.03 1.11-1.78 1.11h-3.77c-.28 0-.54-.06-.78-.16-.71-.3-1.22-1.02-1.22-1.84v-2c0-1.1.9-2 2-2h.08 13.84.08c1.11 0 2 .9 2 2z" fill="#69d6f4"/><path d="m31 1v12.516l-3.728 4.325-4.847-.657c1.508-1.14 2.649-2.756 3.203-4.67.824-.535 1.373-1.46 1.373-2.514v-2c0-1.489-1.093-2.718-2.516-2.951-1.659-2.503-4.469-4.049-7.483-4.049s-5.825 1.546-7.485 4.049c-1.423.234-2.515 1.463-2.515 2.951v2c0 1.054.548 1.978 1.372 2.513.573 1.981 1.776 3.641 3.363 4.786-3.868 1.008-6.735 4.521-6.735 8.7v2.772c0 2.648 1.665 4.91 4 5.81v7.17c-5.095 1.03-8 2.923-8 5.249v10c0 3.939 8.049 6 16 6s16-2.061 16-6v-10c0-2.326-2.905-4.218-8-5.249v-15.75l2.982.004h.008c1.067 0 2.097-.279 3.008-.783v3.778h32v-28zm-9.116 4h-9.764c1.293-1.26 3.042-2 4.883-2s3.588.74 4.881 2zm-12.882 3c0-.552.448-1 1-1h14c.552 0 1 .448 1 1v2c0 .552-.448 1-1 1h-3.765c-.382 0-.725-.212-.895-.552-.445-.893-1.342-1.448-2.34-1.448-.999 0-1.896.555-2.342 1.447-.17.341-.513.553-.894.553h-3.764c-.552 0-1-.448-1-1zm1.698 5h3.066c1.144 0 2.172-.636 2.684-1.659.209-.416.896-.418 1.104.001.511 1.022 1.54 1.658 2.683 1.658h3.066c-1.136 2.407-3.547 4-6.301 4-2.755 0-5.166-1.593-6.302-4zm.529 22.001h5.547c-.498.789-.774 1.7-.774 2.657v13.326c-1.829-.041-3.506-.187-5-.412v-15.583c.076.003.151.012.227.012zm11.773 15.569c-1.494.226-3.171.372-5 .412v-13.325c0-.802.312-1.556.878-2.121l.536-.536h3.586zm-14-6.776v6.408c-3.794-.835-6-2.167-6-3.202 0-.805 1.629-2.258 6-3.206zm8 17.206c-8.546 0-14-2.369-14-4v-2.944c2.879 1.94 8.459 2.944 14 2.944s11.121-1.004 14-2.944v2.944c0 1.631-5.454 4-14 4zm0-6c-8.546 0-14-2.369-14-4v-.944c2.879 1.94 8.459 2.944 14 2.944s11.121-1.004 14-2.944v.944c0 1.631-5.454 4-14 4zm14-8c0 1.036-2.206 2.367-6 3.202v-6.408c4.371.949 6 2.401 6 3.206zm-3.016-22.995-4.984-.006v9.001l-6.869.001 3.72-2.452c.861-.491 1.495-1.178 1.832-1.986.486-1.166.409-2.458-.213-3.547-1.059-1.851-3.504-2.622-5.521-1.446l-4.802 3.26c-.165.112-.358.172-.561.172h-1.588v2h1.588c.605 0 1.188-.18 1.686-.519l4.738-3.22c.907-.525 2.194-.179 2.724.745.316.554.353 1.187.104 1.784-.163.392-.511.754-1.031 1.054l-5.251 3.458c-.693.456-1.498.697-2.327.697-2.333-.001-4.229-1.898-4.229-4.23v-2.772c0-3.859 3.14-6.999 6.999-7h2.978c.008 0 .015.001.023.001s.015-.001.023-.001h3.903l7.151.969 5.387-6.248c.679-.814 1.999-.936 2.813-.259.849.707.965 1.972.268 2.81l-5.34 6.252c-.805.942-1.977 1.482-3.215 1.482-.002 0-.004 0-.006 0zm9.014-13.005v-4h20v4zm24 16h-28v-3.497l5.076-5.944c1.101-1.323 1.188-3.147.372-4.56h20.552v-7.999h-24v6c-.718 0-1.399.211-2 .56v-8.56h28z"/><path d="m47 25h12v-10h-12zm2-8h8v6h-8z"/><path d="m41 15h4v2h-4z"/><path d="m35 23h2v2h-2z"/><path d="m39 23h6v2h-6z"/><path d="m39 19h6v2h-6z"/><path d="m37 51h26v-20h-26zm2-6h4v4h-4zm16 4h-4v-8h4zm-6 0h-4v-4.465l4-2.667zm8 0v-8.667l4-5.333v14zm3-16-4.5 6h-5.803l-6 4h-4.697v-10z"/></svg>