<svg id="Capa_1" enable-background="new 0 0 507.762 507.762" height="512" viewBox="0 0 507.762 507.762" width="512" xmlns="http://www.w3.org/2000/svg"><g><g><g><path d="m383.728 343.227 31.642 140.165c2.688 11.908-10.297 21.168-20.68 14.747l-140.809-87.09-140.809 87.09c-10.382 6.421-23.368-2.839-20.68-14.747l2.433-10.778 29.209-129.387-112.651-147.684c-6.915-9.065-.45-22.126 10.951-22.126h127.57l92.057-159.043c5.305-9.165 18.536-9.165 23.84 0l92.057 159.043h127.57c11.401 0 17.865 13.061 10.951 22.126z" fill="#d9b1ee"/><g><path d="m155.207 334.629-95.001-124.545c-2.083-2.731-.136-6.667 3.3-6.667h101.304c1.481 0 2.85-.789 3.592-2.071l81.888-141.474c1.598-2.761 5.585-2.761 7.183 0l81.888 141.474c.742 1.282 2.111 2.071 3.592 2.071h101.304c3.435 0 5.383 3.935 3.3 6.667l-95.001 124.545c-.745.976-1.019 2.233-.748 3.431l23.61 104.586c.81 3.588-3.103 6.378-6.231 4.443l-113.121-69.965c-1.338-.827-3.028-.827-4.366 0l-113.121 69.965c-3.128 1.935-7.041-.855-6.231-4.443l23.61-104.586c.268-1.198-.006-2.455-.751-3.431z" fill="#fee97d"/></g></g><g><g><path d="m154.036 472.613 29.209-129.387-112.651-147.683c-6.915-9.065-.45-22.126 10.951-22.126h-59.211c-11.401 0-17.865 13.061-10.951 22.126l112.651 147.684-29.209 129.386-2.433 10.778c-2.688 11.908 10.297 21.168 20.68 14.747l40.916-25.306z" fill="#cb97e7"/></g><g><path d="m209.986 361.011c3.554-15.745-.048-32.255-9.837-45.089l-80.731-105.838c-2.083-2.731-.136-6.667 3.3-6.667h-59.212c-3.435 0-5.383 3.935-3.3 6.667l95.001 124.545c.745.977 1.019 2.233.748 3.431l-23.61 104.586c-.81 3.588 3.103 6.378 6.231 4.443l60.412-37.365z" fill="#fed402"/></g></g><g fill="#99e6fc"><path d="m408.818 317.679c-2.666-13.176-10.479-24.745-21.705-32.14-1.16-.764-1.16-2.465 0-3.229 11.227-7.395 19.039-18.963 21.705-32.14.289-1.426 2.327-1.426 2.615 0 2.666 13.176 10.479 24.745 21.705 32.14 1.16.764 1.16 2.465 0 3.229-11.227 7.395-19.039 18.963-21.705 32.14-.288 1.426-2.326 1.426-2.615 0z"/><path d="m171.567 123.869c-2.316-11.446-9.103-21.495-18.855-27.919-1.008-.664-1.008-2.141 0-2.805 9.753-6.424 16.539-16.473 18.855-27.919.251-1.239 2.021-1.239 2.272 0 2.316 11.446 9.103 21.495 18.855 27.919 1.008.664 1.008 2.141 0 2.805-9.753 6.424-16.539 16.473-18.855 27.919-.251 1.239-2.022 1.239-2.272 0z"/><path d="m95.284 441.868c-1.94-9.59-7.626-18.01-15.797-23.392-.844-.556-.844-1.794 0-2.35 8.171-5.382 13.857-13.802 15.797-23.392.21-1.038 1.693-1.038 1.903 0 1.94 9.59 7.626 18.01 15.797 23.392.844.556.844 1.794 0 2.35-8.171 5.382-13.857 13.802-15.797 23.392-.209 1.038-1.693 1.038-1.903 0z"/></g></g><g><path d="m391.814 344.991 1.326-1.737c2.512-3.293 1.878-8-1.415-10.512s-8-1.879-10.512 1.415l-3.449 4.521c-1.346 1.765-1.841 4.035-1.353 6.2l31.642 140.165c.852 3.774-1.68 5.92-2.477 6.488s-3.652 2.262-6.941.228l-140.81-87.09c-2.418-1.495-5.473-1.495-7.891 0l-140.81 87.09c-3.289 2.035-6.145.34-6.941-.228-.797-.568-3.329-2.714-2.477-6.489l2.433-10.778c.912-4.041-1.624-8.055-5.665-8.967-4.041-.913-8.055 1.625-8.967 5.665l-2.433 10.778c-1.921 8.509 1.298 16.94 8.4 22.005 3.747 2.672 8.029 4.017 12.327 4.017 3.848 0 7.709-1.078 11.213-3.245l136.864-84.65 136.864 84.65c7.419 4.588 16.439 4.293 23.541-.772 7.102-5.064 10.321-13.496 8.4-22.004z"/><path d="m110.504 369.104c-.912 4.041 1.624 8.055 5.665 8.967.556.125 1.111.186 1.658.186 3.428 0 6.522-2.366 7.309-5.85l6.214-27.528c.489-2.165-.007-4.435-1.353-6.2l-50.482-66.181c-2.512-3.293-7.218-3.925-10.512-1.415-3.293 2.512-3.927 7.219-1.415 10.512l48.359 63.396z"/><path d="m17.346 190.994c-2.132-2.794-1.154-5.537-.635-6.587.52-1.049 2.107-3.49 5.622-3.49h127.57c2.677 0 5.15-1.426 6.491-3.743l11.922-20.598c2.075-3.585.851-8.173-2.734-10.249-3.584-2.073-8.172-.852-10.249 2.734l-9.756 16.855h-123.244c-8.146 0-15.452 4.536-19.065 11.837s-2.789 15.86 2.151 22.338l42.714 55.998c1.476 1.935 3.709 2.952 5.969 2.952 1.586 0 3.185-.501 4.543-1.537 3.293-2.512 3.927-7.219 1.415-10.512z"/><path d="m206.626 75.419c3.585 2.075 8.173.851 10.249-2.734l31.577-54.554c1.635-2.826 4.341-3.131 5.429-3.131s3.793.305 5.429 3.131l92.057 159.043c1.341 2.316 3.814 3.743 6.491 3.743h36.287c4.142 0 7.5-3.358 7.5-7.5s-3.358-7.5-7.5-7.5h-31.962l-89.891-155.3c-3.848-6.648-10.73-10.617-18.411-10.617s-14.563 3.969-18.411 10.617l-31.577 54.553c-2.075 3.585-.851 8.174 2.733 10.249z"/><path d="m504.494 177.754c-3.614-7.301-10.919-11.837-19.065-11.837h-59.321c-4.142 0-7.5 3.358-7.5 7.5s3.358 7.5 7.5 7.5h59.321c3.515 0 5.103 2.441 5.622 3.49.52 1.05 1.498 3.792-.634 6.587l-46.954 61.555c-2.512 3.293-1.878 8 1.415 10.512 1.358 1.036 2.957 1.537 4.543 1.537 2.259 0 4.493-1.017 5.969-2.952l46.954-61.555c4.939-6.477 5.763-15.036 2.15-22.337z"/><path d="m214.164 409.157 39.717-24.565 119.767 74.075c1.212.75 2.58 1.122 3.945 1.122 1.529 0 3.056-.467 4.355-1.394 2.459-1.754 3.626-4.812 2.961-7.758l-25.443-112.705 17.286-22.661c1.252-1.642 1.772-3.727 1.438-5.765-.321-1.951-1.398-3.693-2.992-4.852-.146-.111-.296-.218-.45-.319-3.454-2.284-8.108-1.337-10.393 2.118-.25.377-.46.768-.633 1.168l-18.305 23.998c-1.346 1.765-1.841 4.035-1.353 6.2l22.279 98.692-108.517-67.117c-2.418-1.495-5.473-1.495-7.891 0l-43.662 27.006c-3.522 2.179-4.612 6.801-2.433 10.324 2.178 3.523 6.8 4.612 10.324 2.433z"/><path d="m428.494 235.073c3.292 2.512 7.999 1.879 10.512-1.415l19.598-25.692c1.729-2.268 2.023-5.32.758-7.875-1.265-2.556-3.87-4.173-6.722-4.173h-107.756l-84.512-146.009c-1.341-2.316-3.814-3.743-6.491-3.743s-5.15 1.426-6.491 3.743l-84.512 146.008h-107.757c-2.852 0-5.457 1.617-6.722 4.173s-.971 5.608.758 7.875l99.138 129.967-25.443 112.705c-.665 2.946.502 6.004 2.961 7.758 1.299.927 2.826 1.394 4.355 1.394 1.365 0 2.733-.372 3.945-1.122l52.854-32.69c3.522-2.179 4.612-6.801 2.433-10.324-2.178-3.522-6.801-4.613-10.324-2.433l-37.658 23.292 22.279-98.692c.489-2.165-.006-4.435-1.353-6.2l-92.07-120.703h96.928c2.676 0 5.15-1.426 6.491-3.743l80.188-138.536 80.187 138.536c1.341 2.316 3.815 3.743 6.491 3.743h96.928l-10.408 13.644c-2.511 3.293-1.878 8 1.415 10.512z"/><path d="m256.242 310.971c4.142 0 7.5-3.358 7.5-7.5v-69.556c0-4.142-3.358-7.5-7.5-7.5s-7.5 3.358-7.5 7.5v69.556c0 4.142 3.358 7.5 7.5 7.5z"/><path d="m222.35 226.925c-3.933-1.308-8.176.822-9.482 4.753l-17.203 51.784-18.052-52.006c-1.358-3.913-5.633-5.982-9.545-4.626-3.913 1.358-5.984 5.632-4.626 9.545l23.799 68.563c1.284 3.616 4.713 6.034 8.546 6.034h.063c3.858-.026 7.284-2.499 8.542-6.2l22.711-68.363c1.306-3.933-.822-8.178-4.753-9.484z"/><path d="m296.373 310.971c4.142 0 7.5-3.358 7.5-7.5v-22.754c4.184-.022 9.128-.045 11.868-.045 15.171 0 27.513-12.17 27.513-27.129 0-14.958-12.342-27.128-27.513-27.128h-19.368c-1.993 0-3.905.793-5.312 2.205s-2.195 3.326-2.188 5.319c0 0 .048 15.122.048 19.604 0 4.784-.048 49.928-.048 49.928 0 4.142 3.357 7.5 7.5 7.5zm19.367-69.556c6.783 0 12.513 5.554 12.513 12.128 0 6.575-5.73 12.129-12.513 12.129-2.72 0-7.603.022-11.774.044-.022-4.3-.045-9.383-.045-12.173 0-2.354-.013-7.633-.026-12.128z"/><path d="m437.264 276.046c-9.491-6.251-16.226-16.225-18.48-27.364-.844-4.17-4.404-7.083-8.659-7.083s-7.815 2.913-8.659 7.083c-2.254 11.139-8.989 21.112-18.479 27.364-2.658 1.75-4.245 4.696-4.245 7.879s1.588 6.127 4.245 7.876c9.49 6.251 16.226 16.226 18.479 27.364.844 4.169 4.405 7.082 8.659 7.082s7.814-2.912 8.659-7.082c2.254-11.139 8.989-21.113 18.479-27.364 2.657-1.75 4.244-4.694 4.245-7.876s-1.585-6.127-4.244-7.879zm-21.095 40.145c-.001-.004-.001-.008-.002-.013 0 .005.001.009.002.013zm-6.044-16.417c-3.292-5.97-7.619-11.356-12.772-15.85 5.153-4.494 9.481-9.881 12.772-15.85 3.291 5.969 7.62 11.357 12.772 15.85-5.152 4.493-9.48 9.881-12.772 15.85z"/><path d="m148.586 102.213c8.027 5.288 13.724 13.723 15.63 23.144.827 4.087 4.316 6.942 8.487 6.942s7.66-2.855 8.487-6.942c1.906-9.421 7.603-17.856 15.628-23.143 2.587-1.704 4.131-4.569 4.131-7.667 0-3.097-1.544-5.963-4.13-7.666-8.026-5.287-13.723-13.723-15.629-23.143-.826-4.087-4.315-6.942-8.485-6.943h-.001c-4.169 0-7.659 2.854-8.487 6.942-1.906 9.42-7.603 17.855-15.63 23.143-2.586 1.704-4.129 4.569-4.129 7.666-.002 3.098 1.542 5.963 4.128 7.667zm30.331 20.169c-.005-.028-.011-.054-.017-.082.007.028.013.055.017.082zm-6.214-39.625c2.603 4.37 5.846 8.355 9.615 11.79-3.77 3.435-7.012 7.42-9.615 11.79-2.603-4.37-5.846-8.355-9.616-11.79 3.77-3.435 7.013-7.42 9.616-11.79z"/><path d="m96.236 450.147c4.015 0 7.507-2.856 8.303-6.792 1.533-7.578 6.116-14.363 12.572-18.616 2.51-1.653 4.008-4.435 4.007-7.44 0-3.005-1.5-5.786-4.008-7.436-6.456-4.253-11.039-11.038-12.572-18.615-.796-3.936-4.288-6.792-8.303-6.792s-7.507 2.856-8.303 6.791c-1.533 7.578-6.116 14.363-12.57 18.614-2.51 1.652-4.009 4.433-4.01 7.438 0 3.006 1.498 5.787 4.008 7.44 6.456 4.253 11.039 11.038 12.572 18.615.797 3.937 4.289 6.793 8.304 6.793zm0-40.433c1.805 2.748 3.912 5.297 6.28 7.587-2.368 2.291-4.475 4.839-6.28 7.587-1.805-2.748-3.912-5.297-6.28-7.587 2.368-2.29 4.475-4.839 6.28-7.587z"/></g></g></svg>